<?xml version="1.0" encoding="utf-8"?>
<svg version="1.1" xmlns="http://www.w3.org/2000/svg" x="0" y="0" width="400" height="200" viewBox="0, 0, 400, 200">
  <g id="js">
    <path d="M0,0 L200,0 L200,200 L0,200 L0,0 z" fill="#f0db4f"/>
    <path d="M82.54,179.663 Q72.04,179.663 64.97,175.603 Q57.9,171.543 53.14,163.143 L67.14,152.783 Q69.66,157.403 73.02,159.643 Q76.38,161.883 79.88,161.883 Q85.48,161.883 88.35,158.453 Q91.22,155.023 91.22,145.923 L91.22,86.703 L111.8,86.703 L111.8,147.603 Q111.8,154.183 110.05,160.063 Q108.3,165.943 104.73,170.283 Q101.16,174.623 95.63,177.143 Q90.1,179.663 82.54,179.663 z" fill="#323330"/>
    <path d="M150.8,179.663 Q141.84,179.663 132.95,176.373 Q124.06,173.083 117.06,166.503 L128.82,152.363 Q133.72,156.563 139.67,159.223 Q145.62,161.883 151.36,161.883 Q157.8,161.883 160.95,159.503 Q164.1,157.123 164.1,153.063 Q164.1,150.963 163.19,149.423 Q162.28,147.883 160.53,146.693 Q158.78,145.503 156.33,144.453 Q153.88,143.403 150.94,142.143 L139.04,137.103 Q135.54,135.703 132.25,133.463 Q128.96,131.223 126.37,128.213 Q123.78,125.203 122.24,121.213 Q120.7,117.223 120.7,112.183 Q120.7,106.583 123.08,101.613 Q125.46,96.643 129.8,92.933 Q134.14,89.223 140.09,87.123 Q146.04,85.023 153.18,85.023 Q161.16,85.023 168.93,88.103 Q176.7,91.183 182.58,97.063 L172.08,110.083 Q167.6,106.583 163.12,104.693 Q158.64,102.803 153.18,102.803 Q147.86,102.803 144.71,104.973 Q141.56,107.143 141.56,111.063 Q141.56,113.163 142.61,114.633 Q143.66,116.103 145.55,117.293 Q147.44,118.483 149.96,119.533 Q152.48,120.583 155.42,121.843 L167.18,126.603 Q175.58,129.963 180.41,135.843 Q185.24,141.723 185.24,151.383 Q185.24,157.123 182.93,162.233 Q180.62,167.343 176.21,171.193 Q171.8,175.043 165.36,177.353 Q158.92,179.663 150.8,179.663 z" fill="#323330"/>
  </g>
  <g id="ts">
    <path d="M200,0 L400,0 L400,200 L200,200 L200,0 z" fill="#007acc"/>
    <path d="M270.88,177.983 L270.88,104.063 L245.82,104.063 L245.82,86.703 L316.66,86.703 L316.66,104.063 L291.6,104.063 L291.6,177.983 z" fill="#ffffff"/>
    <path d="M350.8,179.663 Q341.84,179.663 332.95,176.373 Q324.06,173.083 317.06,166.503 L328.82,152.363 Q333.72,156.563 339.67,159.223 Q345.62,161.883 351.36,161.883 Q357.8,161.883 360.95,159.503 Q364.1,157.123 364.1,153.063 Q364.1,150.963 363.19,149.423 Q362.28,147.883 360.53,146.693 Q358.78,145.503 356.33,144.453 Q353.88,143.403 350.94,142.143 L339.04,137.103 Q335.54,135.703 332.25,133.463 Q328.96,131.223 326.37,128.213 Q323.78,125.203 322.24,121.213 Q320.7,117.223 320.7,112.183 Q320.7,106.583 323.08,101.613 Q325.46,96.643 329.8,92.933 Q334.14,89.223 340.09,87.123 Q346.04,85.023 353.18,85.023 Q361.16,85.023 368.93,88.103 Q376.7,91.183 382.58,97.063 L372.08,110.083 Q367.6,106.583 363.12,104.693 Q358.64,102.803 353.18,102.803 Q347.86,102.803 344.71,104.973 Q341.56,107.143 341.56,111.063 Q341.56,113.163 342.61,114.633 Q343.66,116.103 345.55,117.293 Q347.44,118.483 349.96,119.533 Q352.48,120.583 355.42,121.843 L367.18,126.603 Q375.58,129.963 380.41,135.843 Q385.24,141.723 385.24,151.383 Q385.24,157.123 382.93,162.233 Q380.62,167.343 376.21,171.193 Q371.8,175.043 365.36,177.353 Q358.92,179.663 350.8,179.663 z" fill="#ffffff"/>
  </g>
</svg>
